<svg width="35" height="36" fill="none" xmlns="http://www.w3.org/2000/svg"><path d="M34.024 22.891c-1.513-4.35-4.617-9.016-8.748-13.146C16.512.98 6.233-2.473 1.88 1.876-2.476 6.231.983 16.504 9.747 25.27c6.202 6.207 13.163 9.748 18.245 9.748 2.098 0 3.88-.607 5.153-1.88 2.12-2.125 2.437-5.765.88-10.245zm-1.656 9.475c-3.852 3.852-13.655.328-21.845-7.868-4.016-4.016-7.032-8.536-8.492-12.732-1.415-4.065-1.19-7.3.623-9.114 1.06-1.06 2.568-1.563 4.371-1.563 4.754 0 11.54 3.492 17.48 9.431 4.017 4.016 7.027 8.536 8.492 12.732 1.405 4.066 1.186 7.3-.628 9.115z" fill="#2F80ED"/><path d="M20.867 15.067c.874-1.06 1.721-2.148 2.442-3.356-1.207.722-2.295 1.569-3.355 2.443a46.958 46.958 0 00-3.021 2.776 46.768 46.768 0 00-2.77 3.021c-.875 1.06-1.722 2.142-2.443 3.35 1.207-.727 2.295-1.568 3.35-2.442a48.43 48.43 0 003.021-2.77 48.364 48.364 0 002.776-3.022zm5.42 2.939c-.929.448-1.748 1.017-2.524 1.612a24.014 24.014 0 00-2.191 1.946 24.099 24.099 0 00-1.945 2.196c-.601.782-1.164 1.596-1.618 2.525.93-.448 1.743-1.017 2.525-1.618a24.872 24.872 0 002.196-1.945 24.77 24.77 0 001.946-2.191c.595-.776 1.163-1.596 1.611-2.525zm-.082 8.197a8.692 8.692 0 00-1.115 1.366c-.322.502-.612 1.043-.787 1.694.656-.175 1.191-.465 1.694-.787.498-.328.95-.705 1.366-1.115a9.051 9.051 0 001.12-1.366c.323-.503.613-1.044.787-1.7-.655.175-1.196.46-1.699.787a8.54 8.54 0 00-1.366 1.12zM15.396 11.258c.601-.781 1.165-1.596 1.613-2.524-.93.448-1.75 1.016-2.525 1.612a24.014 24.014 0 00-2.191 1.945 24.084 24.084 0 00-1.945 2.197c-.601.78-1.164 1.595-1.618 2.524.93-.448 1.743-1.016 2.525-1.617a24.874 24.874 0 002.196-1.946 22.518 22.518 0 001.945-2.191zM9.932 7.45c.323-.503.612-1.044.787-1.7-.655.175-1.196.46-1.699.787a8.71 8.71 0 00-1.366 1.12 8.694 8.694 0 00-1.115 1.366c-.322.503-.612 1.044-.787 1.694.656-.175 1.192-.464 1.694-.787a8.89 8.89 0 002.486-2.481z" fill="#2F80ED"/></svg>