<svg width="38" height="30" fill="none" xmlns="http://www.w3.org/2000/svg"><path d="M28.011 4.812c-1.69-1.185-4.131-2.042-6.989-2.341C18.892.962 15.558 0 11.738 0 5.158 0 0 2.834 0 6.456c0 1.437.81 2.775 2.347 3.896v13.71a.59.59 0 00.588.587H9.39v1.76c0 .323.264.587.587.587h6.455v1.76c0 .324.264.588.587.588h17.607a.588.588 0 00.587-.587v-13.71c1.537-1.12 2.347-2.464 2.347-3.896 0-3.122-4.008-5.775-9.549-6.338zM3.263 9.56c-.95-.646-2.089-1.708-2.089-3.104 0-2.864 4.836-5.282 10.564-5.282s10.564 2.418 10.564 5.282c0 1.396-1.139 2.458-2.09 3.104a.601.601 0 00-.258.487v13.428H3.522V10.047a.586.586 0 00-.258-.487zm7.3 15.088h9.978a.588.588 0 00.586-.587v-13.71c1.538-1.12 2.348-2.464 2.348-3.896 0-.921-.335-1.79-.945-2.576 3.99.78 6.814 2.752 6.814 4.924 0 1.396-1.139 2.459-2.09 3.104a.602.602 0 00-.258.488v13.427H10.565v-1.174zm23.734-10.393a.602.602 0 00-.258.487v13.427H17.607v-1.174h9.977a.588.588 0 00.586-.586v-13.71c1.538-1.121 2.348-2.465 2.348-3.897 0-.916-.352-1.79-.98-2.582 4.002.769 6.849 2.752 6.849 4.93 0 1.396-1.139 2.458-2.09 3.104z" fill="#2F80ED"/><path d="M5.869 8.217c.968 0 1.76-.793 1.76-1.76 0-.97-.792-1.761-1.76-1.761s-1.76.792-1.76 1.76.792 1.76 1.76 1.76zm0-2.348c.323 0 .587.264.587.587a.588.588 0 01-.587.587.588.588 0 01-.587-.587c0-.323.264-.587.587-.587zM17.02 18.78c.968 0 1.76-.792 1.76-1.76 0-.969-.792-1.761-1.76-1.761s-1.76.792-1.76 1.76.792 1.76 1.76 1.76zm0-2.348c.323 0 .587.264.587.587a.588.588 0 01-.587.587.588.588 0 01-.587-.587.59.59 0 01.587-.587zm-7.63 4.695c.968 0 1.76-.792 1.76-1.76 0-.969-.792-1.76-1.76-1.76s-1.76.791-1.76 1.76c0 .968.792 1.76 1.76 1.76zm0-2.347c.323 0 .587.264.587.587a.588.588 0 01-.587.586.588.588 0 01-.587-.586c0-.323.264-.587.587-.587zm4.109-7.63c.968 0 1.76-.791 1.76-1.76 0-.968-.792-1.76-1.76-1.76-.969 0-1.76.792-1.76 1.76 0 .969.791 1.76 1.76 1.76zm0-2.346c.323 0 .587.263.587.586a.588.588 0 01-.587.587.588.588 0 01-.587-.587c0-.323.264-.586.587-.586z" fill="#2F80ED"/></svg>