<svg width="35" height="33" fill="none" xmlns="http://www.w3.org/2000/svg"><path d="M34.453 28.966h-1.094V13.107a3.832 3.832 0 00-3.828-3.828H18.047V6.47a2.233 2.233 0 001.684-2.155c0-1.029-1.466-3.566-1.76-4.064-.198-.333-.744-.333-.941 0-.296.498-1.761 3.035-1.761 4.064 0 1.039.716 1.908 1.684 2.154V9.28H5.47a3.832 3.832 0 00-3.828 3.828v15.86H.547a.548.548 0 00-.547.546v2.188c0 .3.246.547.547.547h33.906a.548.548 0 00.547-.547v-2.188a.55.55 0 00-.547-.547zM16.363 4.32c0-.383.53-1.548 1.137-2.674.607 1.12 1.137 2.291 1.137 2.674a1.137 1.137 0 11-2.275 0zM2.733 24.657c.684.153 1.105.596 1.602 1.132.673.722 1.439 1.542 2.953 1.542 1.515 0 2.275-.82 2.953-1.542.624-.667 1.116-1.192 2.15-1.192 1.039 0 1.53.525 2.154 1.192.673.722 1.439 1.542 2.953 1.542 1.515 0 2.275-.82 2.953-1.542.623-.667 1.116-1.192 2.15-1.192 1.038 0 1.53.525 2.154 1.192.673.722 1.438 1.542 2.953 1.542s2.28-.82 2.953-1.542c.503-.536.924-.979 1.608-1.132v4.31H2.734v-4.31zm19.687-9.91c-.3 0-.546.246-.546.547 0 .602-.493 1.094-1.094 1.094a1.097 1.097 0 01-1.094-1.094.548.548 0 00-1.094 0v5.47c0 .6-.492 1.093-1.093 1.093a1.097 1.097 0 01-1.094-1.094v-5.469a.548.548 0 00-1.094 0c0 .602-.492 1.094-1.093 1.094a1.097 1.097 0 01-1.094-1.094v-4.921h12.031v7.109c0 .601-.492 1.093-1.093 1.093a1.097 1.097 0 01-1.094-1.093v-2.188a.55.55 0 00-.548-.547zM5.468 10.373h6.563v4.921a2.187 2.187 0 003.281 1.892v3.577a2.187 2.187 0 104.375 0v-3.577c.645.372 1.542.372 2.187 0v.296a2.187 2.187 0 104.375 0v-7.11h3.281a2.736 2.736 0 012.735 2.735v1.094H27.89a.548.548 0 00-.547.547c0 .3.246.546.547.546h4.375v8.242c-1.16.17-1.821.87-2.406 1.504-.624.667-1.116 1.192-2.155 1.192-1.039 0-1.531-.525-2.155-1.192-.672-.722-1.438-1.542-2.953-1.542s-2.28.82-2.953 1.542c-.623.667-1.115 1.192-2.149 1.192-1.039 0-1.531-.525-2.154-1.192-.673-.722-1.439-1.542-2.953-1.542-1.515 0-2.281.82-2.953 1.542-.624.667-1.116 1.192-2.15 1.192-1.033 0-1.53-.525-2.149-1.192-.585-.629-1.241-1.329-2.406-1.504v-8.24h7.656a.548.548 0 000-1.094h-7.65v-1.094a2.735 2.735 0 012.734-2.735zm28.438 20.781H1.093V30.06h32.813v1.094z" fill="#2F80ED"/></svg>