<svg width="35" height="29" fill="none" xmlns="http://www.w3.org/2000/svg"><path d="M6.016 21.328a3.284 3.284 0 003.281-3.281 3.284 3.284 0 00-3.28-3.281 3.284 3.284 0 00-3.282 3.28 3.284 3.284 0 003.281 3.282zm0-5.469a2.187 2.187 0 11.001 4.374 2.187 2.187 0 010-4.374zm6.563 9.844a2.187 2.187 0 100-4.373 2.187 2.187 0 000 4.373zm0-3.28c.601 0 1.093.491 1.093 1.093 0 .601-.492 1.094-1.094 1.094a1.097 1.097 0 01-1.093-1.094c0-.602.492-1.094 1.094-1.094zM9.844 4.375c-1.225 0-2.188.722-2.188 1.64 0 .92.963 1.641 2.188 1.641s2.187-.722 2.187-1.64c0-.92-.962-1.641-2.187-1.641zm0 2.187c-.668 0-1.094-.322-1.094-.546 0-.225.426-.547 1.094-.547.667 0 1.093.322 1.093.547 0 .224-.426.546-1.093.546zm9.296 15.86a2.736 2.736 0 000-5.469 2.736 2.736 0 000 5.47zm0-4.375c.903 0 1.641.738 1.641 1.64 0 .903-.738 1.641-1.64 1.641-.903 0-1.64-.738-1.64-1.64 0-.903.737-1.64 1.64-1.64zm1.095-9.843c-1.559 0-2.735.705-2.735 1.64 0 .935 1.176 1.64 2.735 1.64s2.735-.705 2.735-1.64c0-.935-1.176-1.64-2.735-1.64zm0 2.187c-1.061 0-1.64-.41-1.64-.547 0-.137.579-.547 1.64-.547 1.06 0 1.64.41 1.64.547 0 .137-.58.547-1.64.547zm6.562 16.406a2.187 2.187 0 100-4.373 2.187 2.187 0 000 4.373zm0-3.281c.601 0 1.093.492 1.093 1.094 0 .601-.492 1.093-1.093 1.093a1.097 1.097 0 01-1.094-1.093c0-.602.492-1.094 1.094-1.094z" fill="#2F80ED"/><path d="M34.995 13.656a.582.582 0 00-.033-.17c-.005-.022-.016-.038-.027-.06a1.323 1.323 0 00-.071-.11c-.017-.016-.028-.032-.044-.048-.011-.011-.017-.022-.028-.028L17.84.115A.55.55 0 0017.5 0C7.854 0 0 6.13 0 13.672V27.89c0 .3.246.547.547.547h33.906A.548.548 0 0035 27.89v-3.28a.548.548 0 00-.547-.547 3.284 3.284 0 01-3.281-3.282 3.284 3.284 0 013.281-3.28.55.55 0 00.547-.548v-3.28c0-.006-.005-.012-.005-.017zM17.314 1.094l15.542 12.031H1.11C1.482 6.492 8.592 1.171 17.314 1.094zm16.592 15.345a4.383 4.383 0 00-3.828 4.343 4.387 4.387 0 003.828 4.342v2.22H1.094V14.22h32.812v2.22z" fill="#2F80ED"/></svg>