<svg width="31" height="42" fill="none" xmlns="http://www.w3.org/2000/svg"><path d="M30.557 17.238c-.007-.02 0-.04-.007-.059-.006-.013-.013-.02-.013-.033 0-.006 0-.006-.006-.013-.13-.372-.327-.725-.53-1.064-.222-.386-.43-.745-.502-1.098.385-.261.633-.699.633-1.195 0-.797-.646-1.437-1.437-1.437H18.59c-.797 0-1.437.646-1.437 1.437 0 .497.254.934.633 1.196-.072.346-.28.712-.503 1.097-.196.333-.398.686-.522 1.058 0 .007-.007.013-.007.02-.007.006-.007.02-.013.026-.007.02 0 .033-.007.052-.006.033-.02.065-.02.098v22.294c0 .543.438.98.987.98l.242.405c.176.294.496.47.836.47h9.733a.99.99 0 00.836-.47l.248-.405c.543 0 .98-.437.98-.98V17.33c0-.033-.012-.065-.019-.092zm-2.005-2.018c.11.49.378.94.614 1.345l.156.274H17.97c.052-.091.105-.176.157-.274.242-.405.503-.856.614-1.346h9.81zm-10.857 2.6h11.901v1.815c-1.358 2.417-4.05 3.514-6.898 4.67-1.744.706-3.527 1.438-5.003 2.503v-8.989zm0 10.222c1.457-1.24 3.442-2.044 5.37-2.828 2.41-.973 4.892-1.98 6.532-3.874v6.552c-.882.176-1.803.327-2.692.477-3.43.575-6.963 1.163-9.21 3.103v-3.43zm.895-14.723h10.111c.255 0 .457.209.457.457a.463.463 0 01-.457.457H18.59a.458.458 0 01-.457-.457c0-.248.202-.457.457-.457zm10.17 26.775l-.248.405H18.78l-.242-.399a1 1 0 00-.842-.477v-6.747c1.914-2.293 5.703-2.927 9.367-3.54a89.656 89.656 0 002.534-.451v10.738a.982.982 0 00-.836.47zm-15.631-5.951c-.216-.542-.36-1.385-.405-2.436-.04-.836.013-1.77.163-2.835.157-1.11.248-2.424.274-3.906.02-1.424-.032-7.42-.039-7.675v-.895c.157-1.882-1.822-6.715-2.05-7.264-.523-1.248-1.052-4.814-1.235-6.167a1.224 1.224 0 001.039-1.208C10.876.79 10.085 0 9.117 0H4.461c-.967 0-1.757.79-1.757 1.757 0 .614.45 1.117 1.039 1.208-.19 1.352-.719 4.92-1.235 6.167C2.28 9.68.281 14.56.451 16.376v.915c0 .254-.053 6.25-.033 7.675.02 1.476.11 2.789.274 3.906.15 1.045.209 1.973.17 2.835-.052 1.058-.196 1.9-.411 2.436a6.462 6.462 0 00-.392 3.234c-.105.692.026 1.606.405 2.737a2.026 2.026 0 001.914 1.365h8.811c.87 0 1.64-.549 1.914-1.365.268-.79.549-1.888.412-2.757.065-.34.221-1.718-.386-3.214zm-.94-9.674H1.403c-.007-1.62.026-5.35.033-6.689h10.712c.013 1.34.04 5.07.04 6.69zM.998 36.925c-.033-.483-.033-1.43.366-2.41.261-.646.418-1.574.477-2.756.039-.922-.02-1.914-.177-3.018-.137-.947-.215-2.051-.248-3.286h10.76a28.6 28.6 0 01-.255 3.286c-.164 1.13-.216 2.123-.177 3.018.053 1.182.216 2.11.477 2.756.399.98.399 1.927.366 2.41-1.045.157-4.083.562-5.742.386a.275.275 0 00-.105 0c-1.659.176-4.697-.235-5.742-.386zM4.461.98h4.657a.78.78 0 01.778.778.248.248 0 01-.248.248h-5.71a.248.248 0 01-.248-.248c0-.431.346-.778.771-.778zM3.416 9.51c.588-1.404 1.143-5.232 1.32-6.525H8.85c.176 1.293.731 5.12 1.32 6.525.594 1.43 2.11 5.448 1.979 6.82v.476H1.436v-.476c-.123-1.372 1.392-5.39 1.98-6.82zm7.786 30.988H2.384c-.444 0-.843-.28-.987-.698-.248-.738-.385-1.392-.398-1.888 1.182.17 4.07.549 5.787.379.307.033.647.046 1.013.046 1.685 0 3.808-.281 4.781-.419-.006.497-.143 1.144-.398 1.888a1.03 1.03 0 01-.98.693z" fill="#2F80ED"/></svg>