<svg width="35" height="33" fill="none" xmlns="http://www.w3.org/2000/svg"><path fill-rule="evenodd" clip-rule="evenodd" d="M24.952.092a.584.584 0 01.703.057c.937.84 1.537 1.693 1.854 2.557.318.868.336 1.714.16 2.513-.23 1.04-.787 2.002-1.42 2.858 1.15-.161 2.472-.059 3.732.246 1.87.45 3.757 1.383 4.887 2.764a.584.584 0 01-.116.847c-1.786 1.257-3.353 1.784-4.72 1.804a5.133 5.133 0 01-2.214-.457c.03.525.002 1.06-.09 1.592l-1.73 10.099c.986 1.282 1.212 3.096.437 4.696-.992 2.047-3.29 3.034-5.467 2.623-1.11-.21-2.295-.373-3.262-.373-.966 0-2.15.164-3.261.373-2.177.411-4.476-.576-5.467-2.623-.775-1.6-.549-3.414.438-4.696l-1.732-10.1a6.962 6.962 0 01-.072-1.809 5.132 5.132 0 01-2.122.657c-1.482.123-3.221-.364-5.242-1.786a.583.583 0 01-.116-.846C1.295 9.665 3.28 8.72 5.224 8.284c1.073-.241 2.19-.34 3.2-.254-.541-.761-1.006-1.606-1.228-2.512a4.48 4.48 0 01.109-2.58c.309-.891.916-1.77 1.877-2.633a.584.584 0 01.947.606c-.404 1.316.136 2.453 1.135 3.486.91.943 2.113 1.702 3.085 2.316l.085.054c1.124-.31 2.254-.516 3.272-.516.849 0 1.773.143 2.707.37l.072-.046c.975-.616 2.184-1.381 3.097-2.33.994-1.035 1.53-2.173 1.126-3.49a.583.583 0 01.244-.663zm-4.59 7.718l.012.003c1.09.281 2.216.684 3.26 1.114a4.757 4.757 0 011.01.567c.919.678 1.554 1.667 1.843 2.791.195.758.232 1.575.092 2.39l-1.603 9.35a4.259 4.259 0 00-1.348-.58c-1.887-.45-4.096-.86-5.922-.86-1.825 0-4.034.41-5.921.86-.499.12-.95.319-1.348.58l-1.603-9.35a5.676 5.676 0 01.229-2.84 4.956 4.956 0 011.47-2.155l.004-.003a3.878 3.878 0 01.128-.105 4.707 4.707 0 011.113-.646c1.947-.8 4.18-1.508 5.928-1.508.807 0 1.718.15 2.656.392zm-10.122.63a5.91 5.91 0 011.095-.592 31.743 31.743 0 011.643-.624c-.832-.543-1.783-1.217-2.554-2.015-.748-.775-1.375-1.716-1.55-2.811a4.093 4.093 0 00-.468.923A3.32 3.32 0 008.33 5.24c.276 1.13 1.05 2.206 1.91 3.198zm-1.026.896a6.197 6.197 0 00-1.204 1.982c-.673.643-1.533 1.151-2.617 1.24-1.017.085-2.307-.194-3.912-1.203.979-.907 2.452-1.585 3.999-1.932 1.393-.313 2.738-.335 3.734-.088zm12.698-2.288c.823-.54 1.754-1.206 2.512-1.994.745-.776 1.368-1.719 1.54-2.813.201.299.347.588.45.867.233.639.249 1.256.115 1.862-.243 1.106-.98 2.17-1.825 3.18a5.827 5.827 0 00-.626-.302c-.68-.28-1.415-.557-2.166-.8zm4.233 2.229a6.248 6.248 0 011.416 2.515 4.034 4.034 0 002.454.78c.947-.013 2.106-.338 3.505-1.217-.944-.879-2.337-1.54-3.813-1.897-1.294-.313-2.567-.37-3.562-.181zm-11.562 4.559a.583.583 0 100 1.166.583.583 0 000-1.166zm-1.75.583a1.75 1.75 0 113.5 0 1.75 1.75 0 01-3.5 0zm7.583-.583a.583.583 0 100 1.166.583.583 0 000-1.166zm-1.75.583a1.75 1.75 0 113.5 0 1.75 1.75 0 01-3.5 0zm-.96 9.333c-1.685 0-3.785.383-5.65.83a3.028 3.028 0 00-1.583.942c-.825.933-1.063 2.361-.445 3.636.736 1.52 2.481 2.31 4.2 1.986 1.135-.214 2.403-.394 3.478-.394 1.076 0 2.343.18 3.478.394 1.72.325 3.465-.465 4.2-1.986.618-1.275.38-2.703-.444-3.636a3.028 3.028 0 00-1.583-.942c-1.866-.447-3.966-.83-5.65-.83h-.001zm-3.567 3.609a.805.805 0 00-.14.474.583.583 0 11-1.166 0c0-.436.132-.853.373-1.174.241-.322.619-.576 1.085-.576.467 0 .845.254 1.086.576.24.321.373.738.373 1.174a.583.583 0 11-1.167 0 .802.802 0 00-.14-.474c-.075-.1-.135-.109-.152-.109-.016 0-.076.008-.152.109zm6.417 0a.802.802 0 00-.14.474.583.583 0 11-1.166 0c0-.436.132-.853.373-1.174.24-.322.619-.576 1.085-.576.466 0 .844.254 1.085.576.242.321.373.738.373 1.174a.583.583 0 11-1.166 0 .805.805 0 00-.14-.474c-.075-.1-.135-.109-.152-.109-.017 0-.076.008-.152.109z" fill="#2F80ED"/></svg>