<svg width="35" height="40" fill="none" xmlns="http://www.w3.org/2000/svg"><path d="M35 19.062a.627.627 0 00-.625-.625h-.638c-.138-4.081-2.956-7.637-6.875-8.718 0-.113.013-.225.013-.344C26.875 4.206 22.669 0 17.5 0S8.125 4.206 8.125 9.375c0 .119.012.231.019.344-3.87 1.062-6.738 4.543-6.875 8.718H.625a.627.627 0 00-.625.625c0 7.438 4.669 13.8 11.225 16.332L9.82 36.8a1.854 1.854 0 00-.406 2.044A1.848 1.848 0 0011.144 40h12.713c.774 0 1.437-.444 1.731-1.156.294-.713.137-1.5-.406-2.044l-1.406-1.406C30.332 32.862 35 26.5 35 19.062zm-2.513-.625h-12.5v-.031c3.5-.962 6.131-3.9 6.75-7.425 3.275.994 5.613 4.006 5.75 7.457zm-3.318 1.25V22.5c0 .687-.563 1.25-1.25 1.25-.47 0-.894-.27-1.113-.694a.622.622 0 00-.7-.325.623.623 0 00-.481.606v2.288c0 .687-.563 1.25-1.25 1.25-.688 0-1.25-.563-1.25-1.25v-5.938h6.044zM9.374 9.375c0-4.482 3.644-8.125 8.125-8.125s8.125 3.643 8.125 8.125c0 3.58-2.388 6.75-5.769 7.775a9.327 9.327 0 00-9.231-7.775 9.01 9.01 0 00-1.244.093c0-.03-.006-.062-.006-.093zm1.25 1.25a8.083 8.083 0 018.088 7.356c.012.15.025.3.031.45H2.505c.163-4.331 3.744-7.807 8.12-7.807zM24.3 37.68a.614.614 0 01.137.682.614.614 0 01-.575.387H11.143a.605.605 0 01-.575-.387.613.613 0 01.138-.682l1.837-1.844c1.575.47 3.238.72 4.957.72 1.725 0 3.387-.257 4.956-.72L24.3 37.68zm-6.8-2.368c-8.75 0-15.907-6.957-16.238-15.626h20.612v5.938a2.5 2.5 0 105 0v-.856a2.5 2.5 0 003.544-2.269v-2.813h3.319c-.331 8.669-7.487 15.625-16.238 15.625z" fill="#2F80ED"/><path d="M20 12.5a.64.64 0 00.444-.181l.625-.625a.623.623 0 10-.882-.881l-.625.625A.623.623 0 0020 12.5zm2.681-3.305a.64.64 0 00.444.181.623.623 0 00.444-1.063l-.626-.624a.623.623 0 10-.88.881l.618.625zm-5.806-1.07a.64.64 0 00.444-.181l.625-.625a.623.623 0 10-.882-.881l-.625.625a.623.623 0 00.438 1.062zm-9.819 4.558l-.625.625a.623.623 0 000 .88.62.62 0 00.444.188.64.64 0 00.444-.18l.625-.626a.623.623 0 000-.881.63.63 0 00-.888-.006zm4.013 2.497a.623.623 0 10-.882.882l.625.625a.597.597 0 00.438.188.623.623 0 00.444-1.063l-.626-.631zm2.237-9.738a.64.64 0 00.444.181.623.623 0 00.444-1.063l-.625-.624a.623.623 0 10-.882.881l.62.625z" fill="#2F80ED"/></svg>