<svg width="35" height="32" fill="none" xmlns="http://www.w3.org/2000/svg"><path d="M35 15.859c0-1.57-.897-2.62-1.76-3.637-.378-.443-.772-.902-1.067-1.389C29.247 6.01 25.599 0 17.5 0 9.4 0 5.753 6.01 2.827 10.839c-.295.487-.689.946-1.066 1.389C.897 13.24 0 14.29 0 15.859c0 1.882.87 3.566 2.231 4.67l3.265 10.265c.071.23.285.383.52.383h22.968a.54.54 0 00.52-.383l3.265-10.26a6.024 6.024 0 002.23-4.675H35zm-33.906 0c0-1.17.695-1.98 1.499-2.926.404-.476.825-.968 1.164-1.531C6.694 6.573 10.02 1.093 17.5 1.093c7.481 0 10.806 5.48 13.738 10.309.339.563.76 1.055 1.164 1.531.81.946 1.504 1.756 1.504 2.926a4.929 4.929 0 01-4.922 4.922 4.903 4.903 0 01-3.445-1.411.547.547 0 00-.382-.159.546.546 0 00-.383.159 4.903 4.903 0 01-3.445 1.41 4.893 4.893 0 01-3.445-1.41.548.548 0 00-.766 0 4.903 4.903 0 01-3.445 1.41 4.893 4.893 0 01-3.446-1.41.548.548 0 00-.765 0 4.903 4.903 0 01-3.445 1.41 4.93 4.93 0 01-4.923-4.921zm23.177 5.245a6.15 6.15 0 00.886-.607 5.94 5.94 0 002.034 1.099l-1.925 8.482h-2.22l1.225-8.974zm-8.286.306a6.033 6.033 0 001.515-.908c.46.383.973.683 1.515.908l-.4 8.667H16.38l-.394-8.667zm-8.176.186a5.89 5.89 0 002.035-1.1c.279.23.574.433.886.608l1.225 8.974h-2.22l-1.926-8.482zm-4.156-.208a5.966 5.966 0 002.363.486c.24 0 .48-.021.721-.049l1.876 8.253H6.415l-2.762-8.69zm9.401 8.69L11.9 21.6a6.03 6.03 0 001.772.273c.421 0 .831-.05 1.236-.131l.383 8.334h-2.237zm7.039-8.335a6.19 6.19 0 001.235.131c.607 0 1.204-.098 1.772-.268l-1.154 8.471h-2.23l.377-8.334zm8.492 8.334h-2.198l1.876-8.252c.24.027.48.049.721.049a5.98 5.98 0 002.363-.487l-2.762 8.69z" fill="#2F80ED"/><path d="M24.494 15.7c.11.11.246.16.388.16a.545.545 0 00.388-.93l-1.093-1.094a.545.545 0 10-.771.77l1.088 1.095zm-8.634-.935a.56.56 0 00.388-.158l1.093-1.094a.545.545 0 10-.77-.771l-1.094 1.093a.545.545 0 00.383.93zm2.734 3.282a.56.56 0 00.388-.16l1.094-1.093a.545.545 0 10-.772-.771l-1.093 1.094a.545.545 0 00.383.93zM6.448 16.018a.545.545 0 000 .77l1.093 1.095c.11.109.246.158.388.158a.545.545 0 00.388-.93l-1.093-1.093a.551.551 0 00-.776 0zm22.148 1.87c.11.11.246.159.388.159a.56.56 0 00.388-.159l1.094-1.094a.545.545 0 10-.771-.77l-1.094 1.093a.54.54 0 00-.005.771zm-22.58-5.31a.56.56 0 00.388-.159l1.093-1.094a.545.545 0 10-.77-.77l-1.094 1.093a.545.545 0 00.383.93zm21.76-.705a.535.535 0 00.388.158.545.545 0 00.388-.93l-1.094-1.093a.545.545 0 10-.771.771l1.088 1.094zm-6.836.547a.54.54 0 00.388.158.56.56 0 00.388-.159l1.094-1.094a.545.545 0 10-.771-.77l-1.094 1.093a.54.54 0 00-.005.771zm-9.57-.547l1.094 1.093c.109.11.245.159.388.159a.545.545 0 00.388-.93l-1.094-1.094a.545.545 0 00-.77 0 .545.545 0 00-.006.771zm4.49-2.576a.56.56 0 00.388-.158l1.093-1.094a.545.545 0 10-.77-.771l-1.094 1.093a.545.545 0 00.383.93zm3.827-3.828a.56.56 0 00.389-.159l1.093-1.094a.545.545 0 10-.77-.77l-1.095 1.093a.545.545 0 00.383.93zm-9.412 2.575c.11.11.246.159.388.159a.545.545 0 00.388-.93L9.959 6.179a.545.545 0 10-.771.771l1.088 1.094z" fill="#2F80ED"/></svg>