<svg width="35" height="36" fill="none" xmlns="http://www.w3.org/2000/svg"><path d="M3.26 10.438a.55.55 0 00-.537-.559h-.01a.55.55 0 00-.548.537c-.033 2.107.717 4.082 2.058 5.429.11.11.246.159.388.159a.545.545 0 00.389-.93c-1.133-1.134-1.768-2.82-1.74-4.636z" fill="#2F80ED"/><path d="M34.008 25.86a3.409 3.409 0 00-4.811 0 2.39 2.39 0 00-.12.132l-3.542-3.541c1.21-5.605-5.205-16.792-8.16-19.753C15.65.98 13.17 0 10.539 0h-.175c-2.78.05-5.38 1.138-7.312 3.076-3.914 3.913-4.089 10.607-.378 14.323 1.647 1.647 5.895 4.45 10.536 6.398 2.391 1.007 5.265 1.943 7.656 1.943a7.01 7.01 0 001.576-.164l3.525 3.524a3.409 3.409 0 00-.131 4.937 3.39 3.39 0 002.403.996 3.39 3.39 0 003.393-3.366 3.386 3.386 0 002.37-.99 3.41 3.41 0 00.005-4.816zm-20.371-3.07c-4.51-1.9-8.615-4.592-10.185-6.168C.146 13.322.32 7.35 3.824 3.847c1.822-1.822 4.313-2.742 6.748-2.742 2.244 0 4.445.783 6.032 2.37 3.333 3.333 9.09 14.214 7.848 18.888a.639.639 0 00-.071.24 2.894 2.894 0 01-.668 1.133c-.317.318-.739.542-1.248.69a.66.66 0 00-.098.027c-1.878.498-4.926-.065-8.73-1.664v.001zm19.599 7.104a2.31 2.31 0 01-1.844.662.553.553 0 00-.482.203l-.044.054a.32.32 0 01-.032.044c-.017.011-.028.022-.044.033l-.055.044a.556.556 0 00-.203.481 2.279 2.279 0 01-.662 1.845 2.313 2.313 0 01-3.262 0 2.313 2.313 0 010-3.262c.142-.143.296-.263.47-.362a.552.552 0 00.11-.865l-3.612-3.612a3.7 3.7 0 00.909-.656 3.68 3.68 0 00.657-.91l3.612 3.613c.12.12.29.175.46.159a.551.551 0 00.405-.268c.098-.17.218-.329.36-.47a2.313 2.313 0 013.263 0c.892.908.892 2.37-.006 3.267z" fill="#2F80ED"/></svg>