<svg width="35" height="39" fill="none" xmlns="http://www.w3.org/2000/svg"><path d="M34.85 19.86a.636.636 0 00-.468-.21h-7.368v-7.982c0-.007-.007-.013-.007-.025a.697.697 0 00-.037-.19c-.006-.012-.006-.025-.012-.043-.006-.006-.006-.019-.006-.025L23.33 4.151V.614A.616.616 0 0022.715 0H4.292a.616.616 0 00-.614.614v3.537l-3.617 7.24c-.006.006-.006.019-.006.025-.006.012-.006.024-.012.043a.498.498 0 00-.037.19c0 .006-.006.012-.006.025v25.79c0 .338.276.614.614.614h31.318a.615.615 0 00.608-.528l2.456-17.193a.649.649 0 00-.147-.497zm-1.616 4.089H23.25l-.436-3.07h10.869l-.449 3.07zM1.223 12.282h17.194v5.55c-3.059-2.542-6.154-.693-8.91.959-3.003 1.793-5.6 3.34-8.284.289v-6.798zm0 8.523c3.058 2.542 6.153.694 8.91-.964 3.003-1.793 5.6-3.347 8.284-.3v8.78c-3.059-2.542-6.154-.688-8.91.964-3.003 1.793-5.6 3.347-8.284.301v-8.781zM22.715 5.674l2.69 5.38h-5.38l2.69-5.38zM4.907 1.228h17.194v2.456H4.907V1.228zm-.233 3.684H21.72l-3.07 6.141H1.602l3.07-6.14zM1.223 31.3c1.087.903 2.18 1.253 3.254 1.253 1.96 0 3.875-1.149 5.656-2.211 3.003-1.793 5.6-3.335 8.284-.289v6.792H1.223V31.3zm18.422 5.545V12.281h6.14v7.37h-3.684c-.178 0-.35.08-.467.208a.597.597 0 00-.141.492l2.358 16.494h-4.206zm11.747 0h-6.3l-1.664-11.667h9.635l-1.67 11.667z" fill="#2F80ED"/><path d="M27.739 27.591c-.326.473-1.953 2.88-1.953 4.034a2.456 2.456 0 104.912 0c0-1.148-1.627-3.561-1.952-4.034-.227-.332-.78-.332-1.007 0zm.503 5.263a1.232 1.232 0 01-1.228-1.229c0-.405.571-1.516 1.228-2.566.657 1.044 1.228 2.161 1.228 2.566 0 .676-.552 1.229-1.228 1.229z" fill="#2F80ED"/></svg>