<svg width="25" height="43" fill="none" xmlns="http://www.w3.org/2000/svg"><path d="M24.997 8.627a.618.618 0 00-.04-.22l-.006-.007-1.947-4.899c.414-.373.684-.905.684-1.504C23.688.898 22.799 0 21.714 0H3.29C2.204 0 1.316.898 1.316 1.997c0 .599.27 1.131.684 1.497l-1.947 4.9-.007.012a.645.645 0 00-.04.22c0 .007-.006.013-.006.027V39.27c0 .007.007.02.007.027 0 .08.013.153.046.226 0 .007.006.007.006.013.02.054.053.1.086.147l2.112 2.662a.65.65 0 00.513.247h19.457a.669.669 0 00.513-.247l2.113-2.662a.648.648 0 00.085-.147c0-.006.007-.006.007-.013a.675.675 0 00.046-.226c0-.007.006-.02.006-.027V8.652c.006-.006 0-.02 0-.026zM1.317 27.55c3.842 4.806 7.823 3.614 11.37 2.543 3.94-1.185 7.356-2.204 11.001 3.554v4.959H1.317V27.55zm22.37 3.814c-2.158-2.696-4.362-3.501-6.5-3.501-1.672 0-3.317.492-4.87.958-3.316.992-6.257 1.877-9.27-1.291 3.447.719 6.842-2.59 9.915-5.585 4.527-4.42 7.548-6.922 10.725-4.173v13.592zm-11.64-10.378c-4.533 4.42-7.553 6.916-10.732 4.16V9.319h22.372v6.81c-4.034-2.543-8.06 1.37-11.64 4.858zM3.29 1.331h18.423c.362 0 .658.299.658.665a.664.664 0 01-.658.666H3.29a.664.664 0 01-.658-.665c0-.367.296-.666.658-.666zm-.073 2.662h18.569l1.585 3.994H1.631l1.586-3.994zm18.7 37.275H3.085l-1.059-1.331H22.97l-1.053 1.33z" fill="#2F80ED"/></svg>