<svg width="35" height="34" fill="none" xmlns="http://www.w3.org/2000/svg"><path d="M35 19.942v-7.247C34.874 6.73 31.03 2.47 23.581.025a.548.548 0 00-.415.038L.279 12.225s-.033.033-.055.05a.335.335 0 00-.082.07.229.229 0 00-.06.082.428.428 0 00-.044.088.357.357 0 000 .11.266.266 0 000 .07v6.825H0v13.47a.547.547 0 00.547.547h33.906A.547.547 0 0035 32.99V19.942zM1.061 13.226H33.94v6.491a16.645 16.645 0 00-2.297 2.833c-.617.946-1.563 1.974-2.548 1.51a1.503 1.503 0 01-.798-1.095c-.279-1.47-1.553-4.73-3.73-5.397-1.214-.372-2.46.076-3.707 1.329-2.494 2.494-4.097 2.871-5 2.778a1.898 1.898 0 01-1.383-.88c-.054-.088-1.378-2.057-3.56-2.407a4.883 4.883 0 00-3.828 1.198c-2.45 1.941-4.588.957-6.016-.29l-.01-6.07zM23.483 1.091C30.161 3.34 33.578 6.97 33.906 12.165H2.658L23.483 1.091zM1.061 32.46V20.62c1.548 1.094 3.949 1.92 6.656-.23a3.861 3.861 0 013.024-.984c1.707.268 2.828 1.909 2.828 1.909a2.976 2.976 0 002.116 1.389c1.668.235 3.664-.793 5.922-3.068.952-.952 1.843-1.313 2.647-1.061 1.603.492 2.735 3.221 2.997 4.577.139.81.654 1.507 1.39 1.876.3.141.629.216.962.219.798 0 1.837-.443 2.925-2.111.425-.655.897-1.278 1.411-1.865v11.19L1.061 32.46z" fill="#2F80ED"/></svg>