<svg width="35" height="33" fill="none" xmlns="http://www.w3.org/2000/svg"><path d="M10.391 20.782H5.108l-1.876-7.51a1.646 1.646 0 00-1.99-1.192 1.64 1.64 0 00-1.193 1.991l2.139 8.553v8.001c0 .902.738 1.64 1.64 1.64.903 0 1.641-.738 1.641-1.64v-6.563h4.375v7.11c0 .902.738 1.64 1.64 1.64.903 0 1.641-.738 1.641-1.64v-7.657a2.736 2.736 0 00-2.734-2.734zm1.64 10.39a.548.548 0 01-.546.547.548.548 0 01-.547-.547v-7.656a.548.548 0 00-.547-.547H4.922c-.3 0-.547.246-.547.546v7.11a.55.55 0 01-.547.547.548.548 0 01-.546-.547v-8.067a.543.543 0 00-.017-.13L1.11 13.802a.544.544 0 01.4-.662.544.544 0 01.661.4l1.98 7.919c.06.246.279.415.53.415h5.71c.902 0 1.64.738 1.64 1.64v7.657zM33.759 12.08a1.646 1.646 0 00-1.99 1.193l-1.877 7.509H24.61a2.736 2.736 0 00-2.735 2.735v7.656c0 .902.738 1.64 1.64 1.64.903 0 1.641-.738 1.641-1.64v-7.11h4.376v6.564c0 .902.738 1.64 1.64 1.64.902 0 1.64-.738 1.64-1.64v-8.001l2.139-8.553a1.643 1.643 0 00-1.192-1.99v-.002zm.131 1.724l-2.155 8.618a.56.56 0 00-.016.137v8.067c0 .3-.246.546-.547.546a.548.548 0 01-.547-.546v-7.11a.55.55 0 00-.547-.547H24.61a.548.548 0 00-.547.547v7.657a.55.55 0 01-.547.547.548.548 0 01-.547-.547v-7.657c0-.902.738-1.64 1.64-1.64h5.71c.251 0 .47-.17.53-.416l1.98-7.92a.547.547 0 011.061.263z" fill="#2F80ED"/><path d="M25.157 19.688c.902 0 1.64-.738 1.64-1.64 0-.903-.738-1.641-1.64-1.641h-7.11v-3.889a3.284 3.284 0 002.188-1.422 3.28 3.28 0 002.735 1.471 3.279 3.279 0 002.734-1.471 3.28 3.28 0 002.735 1.471.55.55 0 00.547-.547V9.28C28.969 4.2 21.378 0 17.5 0S6.033 4.2 6.017 9.28v2.742c0 .3.246.547.546.547a3.28 3.28 0 002.735-1.471 3.28 3.28 0 002.735 1.47 3.28 3.28 0 002.734-1.47 3.287 3.287 0 002.188 1.422v3.888h-7.11c-.902 0-1.64.738-1.64 1.64 0 .903.738 1.64 1.64 1.64h7.11v11.485c0 .301.246.547.546.547a.548.548 0 00.547-.547V19.688h7.109zm-5.502-10.95h-4.31c.258-3.795 1.15-7.645 2.156-7.645 1.006 0 1.897 3.85 2.154 7.646zm1.094 0c-.115-1.793-.46-5.233-1.45-7.224 2.478 1.012 5.53 3.768 5.83 7.225h-4.38zm-5.048-7.224c-.99 1.991-1.334 5.43-1.449 7.225h-4.38c.3-3.456 3.352-6.213 5.83-7.225zm7.268 9.96a2.2 2.2 0 01-2.116-1.63h4.227a2.188 2.188 0 01-2.11 1.63zm3.353-1.63h1.57v1.558a2.198 2.198 0 01-1.57-1.558zm1.531-1.105h-1.63c-.158-2.007-1.143-3.867-2.472-5.349 2.09 1.39 3.829 3.281 4.102 5.349zM11.249 3.39C9.915 4.872 8.931 6.732 8.778 8.74h-1.63c.272-2.07 2.012-3.961 4.101-5.35zm-4.14 8.012V9.844h1.57a2.197 2.197 0 01-1.57 1.558zm4.922.071a2.2 2.2 0 01-2.116-1.63h4.227a2.188 2.188 0 01-2.11 1.63zm3.353-1.63h4.227a2.19 2.19 0 01-2.116 1.63 2.189 2.189 0 01-2.111-1.63zm-6.087 8.204c0-.301.246-.547.547-.547h15.312c.301 0 .547.246.547.547 0 .3-.246.546-.547.546H9.844a.548.548 0 01-.547-.546z" fill="#2F80ED"/></svg>