<svg width="31" height="45" fill="none" xmlns="http://www.w3.org/2000/svg"><path d="M30.916 6.42c.007-.029.021-.057.021-.092V.703A.705.705 0 0030.235 0H.704A.705.705 0 000 .703v5.625c0 .035.014.063.021.091 0 .021-.007.05 0 .07 1.42 5.928 2.11 11.18 2.067 16.454a.421.421 0 000 .133c-.049 4.93-.731 9.886-2.067 15.427-.007.021 0 .05 0 .07-.007.035-.021.064-.021.099v5.625c0 .387.316.703.703.703h29.53a.705.705 0 00.704-.703v-5.625c0-.035-.014-.063-.021-.091 0-.021.007-.05 0-.07-1.42-5.928-2.11-11.187-2.067-16.46a.379.379 0 000-.127c.049-4.929.73-9.886 2.067-15.427.007-.028 0-.05 0-.077zM1.406 1.406h28.125v4.219h-2.812v-2.11a.705.705 0 00-.704-.702.705.705 0 00-.703.703v2.109h-2.11v-2.11a.705.705 0 00-.703-.702.705.705 0 00-.703.703v2.109h-2.109v-2.11a.705.705 0 00-.703-.702.705.705 0 00-.703.703v2.109h-2.11v-2.11a.705.705 0 00-.703-.702.705.705 0 00-.703.703v2.109h-2.109v-2.11a.705.705 0 00-.703-.702.705.705 0 00-.703.703v2.109H9.14v-2.11a.705.705 0 00-.703-.702.705.705 0 00-.703.703v2.109H5.625v-2.11a.705.705 0 00-.703-.702.705.705 0 00-.703.703v2.109H1.406V1.406zm26.072 20.102l-2.165.928a9.787 9.787 0 00-3.016-7.017l5.927-2.538a61.736 61.736 0 00-.746 8.627zM3.46 23.491l2.166-.928C5.64 25.319 6.8 27.8 8.642 29.58l-5.927 2.538c.457-2.939.703-5.786.745-8.627zm3.572-.991c0-4.655 3.783-8.438 8.438-8.438 4.654 0 8.437 3.783 8.437 8.438 0 4.654-3.783 8.437-8.437 8.437-4.655 0-8.438-3.783-8.438-8.437zM1.59 7.03h27.752a85.484 85.484 0 00-.858 4.199l-7.418 3.185a9.777 9.777 0 00-5.597-1.758c-4.907 0-8.978 3.614-9.71 8.318l-2.285.977c-.05-4.816-.668-9.654-1.885-14.92zm27.942 36.563H1.407v-4.22H4.22v2.11c0 .387.316.703.703.703a.705.705 0 00.703-.703v-2.11h2.11v2.11c0 .387.315.703.702.703a.705.705 0 00.703-.703v-2.11h2.11v2.11c0 .387.316.703.703.703a.705.705 0 00.703-.703v-2.11h2.109v2.11c0 .387.316.703.703.703a.705.705 0 00.703-.703v-2.11h2.11v2.11c0 .387.316.703.702.703a.705.705 0 00.703-.703v-2.11h2.11v2.11c0 .387.316.703.703.703a.705.705 0 00.703-.703v-2.11h2.109v2.11c0 .387.316.703.703.703a.705.705 0 00.703-.703v-2.11h2.813v4.22zm-.183-5.625H1.59c.33-1.428.612-2.827.858-4.205l7.425-3.178a9.777 9.777 0 005.597 1.758c4.908 0 8.979-3.614 9.71-8.319l2.285-.984c.05 4.823.668 9.66 1.885 14.927z" fill="#2F80ED"/><path d="M17.923 26.578c.822 0 1.56-.212 2.053-.45a4.981 4.981 0 001.463-1.048c1.146-1.202 1.385-2.953.611-4.458-.801-1.553-2.418-2.397-4.12-2.158l-.12.021a3.89 3.89 0 00-1.272.429c-.225.12-.443.232-.654.323-1.02.45-2.194.598-3.488.443-1.125-.14-1.849.091-2.13.204-.31.056-1.118.267-1.554.977-.225.359-.422.97-.106 1.863.457 1.287 2.159 1.976 3.594 2.201.253.036.632.085 1.047.085.387 0 .794-.05 1.153-.169 1.055 1.322 2.37 1.736 3.523 1.736zm-1.477-6.054c.24-.106.492-.232.752-.373.254-.134.528-.232.83-.274l.091-.014c1.343-.197 2.279.64 2.68 1.406.393.767.506 1.913-.38 2.84a3.71 3.71 0 01-1.055.753c-.26.127-2.58 1.132-4.12-1.259-.021-.049-.057-.091-.092-.133-.64-1.027-1.216-1.78-1.75-2.328a7.5 7.5 0 003.044-.618zm-4.873 2.82c-.864-.26-1.497-.683-1.645-1.09-.07-.197-.133-.479-.028-.647.127-.211.485-.316.647-.345.485-.042 1.35-.09 3.002 2.328a5.638 5.638 0 01-1.976-.247z" fill="#2F80ED"/></svg>