<svg width="35" height="40" fill="none" xmlns="http://www.w3.org/2000/svg"><path d="M13.75 10.062V8.75c0-.687-.563-1.25-1.25-1.25h-1.388L9.356.475A.622.622 0 008.75 0H7.5a.622.622 0 00-.606.475L5.137 7.5H3.75c-.688 0-1.25.563-1.25 1.25v1.312A3.125 3.125 0 000 13.125v23.75c0 1.724 1.4 3.124 3.125 3.124h10c1.725 0 3.125-1.4 3.125-3.125V13.125a3.136 3.136 0 00-2.5-3.062zM7.987 1.25h.275L9.825 7.5h-3.4l1.562-6.25zM3.75 8.75h8.75V10H3.75V8.75zm-.625 2.5h10A1.88 1.88 0 0115 13.123v7.5h-3.613c-.83-1.194-2-1.875-3.262-1.875-1.263 0-2.437.682-3.262 1.875H1.25v-7.5a1.88 1.88 0 011.875-1.875zm11.874 15.624h-3.95a.626.626 0 00-.537.3c-.6 1-1.469 1.575-2.388 1.575-.918 0-1.787-.575-2.387-1.575a.626.626 0 00-.537-.3H1.25v-5H5.2a.626.626 0 00.537-.3c.6-1 1.469-1.575 2.387-1.575.92 0 1.788.575 2.388 1.575.113.188.319.3.538.3H15v5zm-1.875 11.875h-10a1.88 1.88 0 01-1.874-1.875v-8.75h3.612c.825 1.194 2 1.875 3.262 1.875 1.263 0 2.438-.682 3.263-1.875h3.612v8.75a1.88 1.88 0 01-1.875 1.875zM32.5 10.062V8.75c0-.687-.563-1.25-1.25-1.25h-1.388L28.106.475A.622.622 0 0027.5 0h-1.25a.622.622 0 00-.607.475L23.887 7.5H22.5c-.688 0-1.25.563-1.25 1.25v1.312a3.125 3.125 0 00-2.5 3.063v23.75c0 1.724 1.4 3.124 3.125 3.124h10A3.125 3.125 0 0035 36.874V13.125a3.136 3.136 0 00-2.5-3.062zM26.737 1.25h.275l1.563 6.25h-3.4l1.562-6.25zM22.5 8.75h8.75V10H22.5V8.75zm-.625 2.5h10a1.88 1.88 0 011.875 1.874v7.5h-3.613c-.83-1.194-2-1.875-3.262-1.875-1.263 0-2.437.682-3.262 1.875H20v-7.5a1.88 1.88 0 011.875-1.875zm11.874 15.624H29.8a.626.626 0 00-.537.3c-.6 1-1.468 1.575-2.387 1.575s-1.788-.575-2.388-1.575a.626.626 0 00-.537-.3H20v-5h3.95a.626.626 0 00.537-.3c.6-1 1.469-1.575 2.388-1.575.919 0 1.787.575 2.387 1.575.113.188.319.3.538.3h3.95v5zm-1.874 11.875h-10A1.88 1.88 0 0120 36.874v-8.75h3.612c.825 1.194 2 1.875 3.262 1.875 1.263 0 2.438-.682 3.263-1.875h3.612v8.75a1.88 1.88 0 01-1.874 1.875z" fill="#2F80ED"/></svg>