<svg width="35" height="35" fill="none" xmlns="http://www.w3.org/2000/svg"><path d="M17.5 24.609a7.116 7.116 0 007.109-7.11 7.116 7.116 0 00-7.11-7.108 7.116 7.116 0 00-7.108 7.109 7.116 7.116 0 007.109 7.109zm0-13.125a6.02 6.02 0 016.015 6.015 6.02 6.02 0 01-6.015 6.016 6.02 6.02 0 01-6.015-6.016 6.019 6.019 0 016.015-6.015z" fill="#2F80ED"/><path d="M17.5 0C7.853 0 0 7.853 0 17.5S7.853 35 17.5 35 35 27.147 35 17.5 27.147 0 17.5 0zm0 1.094c9.045 0 16.406 7.36 16.406 16.406 0 4.14-1.547 7.93-4.085 10.817-.448-.186-.771-.585-1.132-1.045-.552-.7-1.241-1.57-2.581-1.57-1.345 0-2.03.876-2.587 1.576-.563.716-.946 1.159-1.717 1.159-.771 0-1.16-.443-1.728-1.16-.547-.705-1.236-1.574-2.576-1.574-1.345 0-2.029.875-2.586 1.575-.564.716-.947 1.159-1.723 1.159-.777 0-1.165-.443-1.734-1.16-.546-.705-1.236-1.574-2.58-1.574-1.34 0-2.03.875-2.582 1.575-.355.454-.673.853-1.116 1.039A16.357 16.357 0 011.094 17.5c0-9.045 7.361-16.406 16.406-16.406zM5.956 29.143c.509-.312.87-.772 1.203-1.193.563-.716.952-1.153 1.717-1.153.771 0 1.16.437 1.723 1.159.557.7 1.247 1.575 2.592 1.575s2.029-.875 2.581-1.575c.569-.722.957-1.16 1.728-1.16s1.154.438 1.717 1.16c.558.7 1.247 1.575 2.587 1.575s2.03-.875 2.576-1.575c.569-.722.957-1.16 1.728-1.16s1.154.438 1.717 1.154c.334.422.7.88 1.214 1.198A16.356 16.356 0 0117.5 33.906c-4.5 0-8.58-1.821-11.544-4.764z" fill="#2F80ED"/><path d="M4.216 14.377a.545.545 0 00-.77 0l-.548.547a.545.545 0 000 .771.52.52 0 00.383.164.56.56 0 00.389-.159l.546-.546a.551.551 0 000-.777zm3.052-4.145a.56.56 0 00.388.159.545.545 0 00.388-.93l-.546-.547a.545.545 0 10-.771.771l.541.547zm4.763-4.216a.56.56 0 00.388-.159l.547-.547a.545.545 0 10-.77-.77l-.548.546a.545.545 0 00.383.93zm7.815-1.253a.56.56 0 00.389.159.545.545 0 00.388-.93l-.547-.547a.545.545 0 10-.771.771l.541.547zm-4.534 4.534a.56.56 0 00.389-.159l.546-.546a.545.545 0 10-.77-.772l-.547.547a.545.545 0 00.382.93zm10.549-1.252a.56.56 0 00.389.158.545.545 0 00.388-.93l-.547-.546a.545.545 0 10-.771.77l.541.548zm5.469 8.202a.56.56 0 00.388.159.545.545 0 00.388-.93l-.546-.547a.545.545 0 10-.771.771l.541.547zm-5.627-2.575a.56.56 0 00.388-.159l.547-.546a.545.545 0 10-.771-.772l-.547.547a.545.545 0 00.383.93zm3.281 8.203a.56.56 0 00.388-.159l.547-.547a.545.545 0 10-.771-.771l-.547.547a.545.545 0 00.383.93zM7.815 19.298a.545.545 0 000 .772l.547.546a.54.54 0 00.388.165.545.545 0 00.388-.93l-.547-.547a.546.546 0 00-.776-.006z" fill="#2F80ED"/></svg>