<svg width="40" height="40" fill="none" xmlns="http://www.w3.org/2000/svg"><path d="M39.68 13.067c.057-.46.006-.927-.186-1.342-.544-1.219-1.9-1.9-3.251-1.711.07-.474 0-.947-.198-1.368-.23-.486-.762-1.135-1.946-1.491a3.88 3.88 0 00-1.318-.15 2.102 2.102 0 00-.148-1.361c-.41-.856-1.216-1.465-2.24-1.705A5.212 5.212 0 0025.345.003c-.16.007-.294.117-.378.253a.549.549 0 00-.019.48c.263.583.276 1.244.032 1.86a2.786 2.786 0 01-1.516 1.544c-.743.31-1.3.836-1.626 1.504-.192.395-.25.849-.16 1.303-1.37-.169-2.72.512-3.276 1.737a2.33 2.33 0 00-.18 1.323c-1.35-.195-2.707.493-3.25 1.712a2.532 2.532 0 00-.186 1.342.477.477 0 00-.32.453v2.412c0 .266.217.486.48.486h.928l1.478 16.721h-4.14c-.82-2.6-3.194-4.383-5.914-4.383-2.72 0-5.094 1.783-5.913 4.383H.48a.49.49 0 00-.39.202.492.492 0 00-.064.44c1.094 3.249 4.102 5.428 7.482 5.428a7.842 7.842 0 006.374-3.294l3.737.279.154 1.705a.5.5 0 00.057.188c.602 1.86 8.474 1.919 9.402 1.919.928 0 8.742-.052 9.395-1.9a.44.44 0 00.064-.207l1.9-21.487h.928c.263 0 .48-.22.48-.486l.001-2.4a.477.477 0 00-.32-.453zm-23.84-.94c.423-.946 1.587-1.413 2.656-1.05a.482.482 0 00.48-.104l.18-.169a.495.495 0 00.12-.538c-.114-.285-.204-.72 0-1.167.43-.946 1.633-1.42 2.727-1.082a.469.469 0 00.48-.124l.173-.181a.479.479 0 00.09-.545c-.18-.389-.199-.778-.052-1.09.275-.576.768-.88 1.127-1.03a3.783 3.783 0 002.041-2.082c.243-.622.3-1.277.167-1.925.998.162 2.841.83 3.5 3.456a.49.49 0 00.397.363c.852.13 1.517.577 1.83 1.231.18.363.122.83-.16 1.29a.483.483 0 00.026.546c.115.162.32.233.512.181l.083-.02a3.06 3.06 0 011.607.027c.672.2 1.145.538 1.357.985.166.35.172.778.006 1.193a.508.508 0 00.115.539l.18.168a.468.468 0 00.48.104c1.068-.363 2.233.104 2.655 1.05.128.28.16.597.103.908H15.738a1.621 1.621 0 01.102-.934zm20.845 14.964h-4.98a.481.481 0 00-.41.227c-.883 1.44-2.399 2.302-4.07 2.302a4.74 4.74 0 01-4.064-2.302.481.481 0 00-.41-.227h-4.978l-.41-4.629h5.389c.166 0 .32-.084.41-.227.883-1.439 2.4-2.301 4.063-2.301 1.665 0 3.188.862 4.07 2.301.09.143.244.227.41.227h5.389l-.41 4.63zM7.29 29.732c2.195 0 4.128 1.374 4.902 3.41H2.387c.775-2.036 2.714-3.41 4.903-3.41zm6.393 5.2a.485.485 0 00-.435.213c-1.3 1.939-3.443 3.1-5.74 3.1-2.74 0-5.204-1.634-6.317-4.124h31.231c.307-.013.576.097.787.298a1.115 1.115 0 01-.71 1.926h-.065l-18.75-1.414zM35.75 37.66a.558.558 0 00-.038.15c-.32.42-3.156 1.224-8.48 1.224-5.325 0-8.16-.797-8.48-1.225a.543.543 0 00-.04-.136l-.12-1.4 13.797 1.037h.154a2.06 2.06 0 001.433-.662c.378-.402.57-.94.55-1.49a2.082 2.082 0 00-.652-1.453 2.075 2.075 0 00-1.466-.558h-14.08l-.447-5.077h4.633a5.685 5.685 0 004.736 2.535c1.907 0 3.66-.94 4.736-2.535h4.633l-.869 9.59zm1.427-16.164h-5.21a5.685 5.685 0 00-4.735-2.535c-1.907 0-3.661.94-4.736 2.535h-5.21l-.447-5.077h20.793l-.455 5.077zm1.863-6.05H15.417v-1.438H39.04v1.439z" fill="#2F80ED"/></svg>