<svg width="30" height="39" fill="none" xmlns="http://www.w3.org/2000/svg"><path d="M29.988.713a.6.6 0 00-.774-.684C19.782 3.077 10.218 3.077.786.03a.602.602 0 00-.582.12.592.592 0 00-.192.564 96.772 96.772 0 010 36.973.6.6 0 00.774.684c9.432-3.042 18.996-3.042 28.428 0a.602.602 0 00.774-.684 96.771 96.771 0 010-36.973zM15 34.883c-4.548 0-9.102.684-13.626 2.047a98.099 98.099 0 000-35.46c9.048 2.723 18.204 2.723 27.252 0a98.097 98.097 0 000 35.46c-4.524-1.362-9.078-2.046-13.626-2.046z" fill="#2F80ED"/><path d="M21 11.4a6.562 6.562 0 00-3.75 1.175 6.553 6.553 0 00-1.824-5.844.598.598 0 00-.846 0 6.553 6.553 0 00-1.824 5.844A6.595 6.595 0 009 11.4c-.33 0-.6.27-.6.6 0 1.632.6 3.127 1.59 4.284A6.775 6.775 0 009 16.2c-.33 0-.6.27-.6.6 0 1.633.6 3.127 1.59 4.285A6.775 6.775 0 009 21c-.33 0-.6.27-.6.6 0 3.438 2.64 6.264 6 6.57v3.03c0 .33.27.6.6.6.33 0 .6-.27.6-.6v-3.03c3.36-.306 6-3.132 6-6.57 0-.33-.27-.6-.6-.6-.335 0-.666.035-.99.084A6.57 6.57 0 0021.6 16.8c0-.33-.27-.6-.6-.6-.335 0-.666.036-.99.084A6.572 6.572 0 0021.6 12c0-.33-.27-.6-.6-.6zm-6.99 11.916c.324.048.654.084.99.084.336 0 .666-.036.99-.084a6.602 6.602 0 00-.99 1.548 6.663 6.663 0 00-.99-1.548zm.99-3.252a6.417 6.417 0 00-.99-1.548c.324.048.654.084.99.084.336 0 .666-.036.99-.084a6.66 6.66 0 00-.99 1.548zm0-12.006a5.407 5.407 0 010 6.684 5.407 5.407 0 010-6.684zm-.636 9.306a5.416 5.416 0 01-4.728-4.728 5.416 5.416 0 014.728 4.728zm0 4.8a5.416 5.416 0 01-4.728-4.728 5.416 5.416 0 014.728 4.728zm-4.728.072a5.415 5.415 0 014.728 4.728 5.416 5.416 0 01-4.728-4.728zm6 4.728a5.416 5.416 0 014.728-4.728 5.415 5.415 0 01-4.728 4.728zm0-4.8a5.416 5.416 0 014.728-4.728 5.415 5.415 0 01-4.728 4.728zm0-4.8a5.416 5.416 0 014.728-4.728 5.415 5.415 0 01-4.728 4.728z" fill="#2F80ED"/></svg>