<svg width="36" height="39" fill="none" xmlns="http://www.w3.org/2000/svg"><path d="M15.086 5.428a7.803 7.803 0 00-4.628 1.52c.38-2.395-.344-4.936-2.19-6.776a.613.613 0 00-.852 0c-1.84 1.84-2.564 4.381-2.19 6.777A7.813 7.813 0 00.603 5.428.605.605 0 000 6.03c0 1.865.658 3.573 1.744 4.918a8.95 8.95 0 00-1.14-.09.605.605 0 00-.604.604c0 1.864.658 3.572 1.744 4.918a8.877 8.877 0 00-1.14-.09.605.605 0 00-.604.602c0 1.865.658 3.573 1.744 4.919a8.877 8.877 0 00-1.14-.09.605.605 0 00-.604.602c0 1.865.658 3.573 1.744 4.919a8.877 8.877 0 00-1.14-.09.605.605 0 00-.604.603c0 4.121 3.198 7.506 7.242 7.814v2.444c0 .332.271.604.603.604a.605.605 0 00.604-.604V35.57c4.043-.308 7.241-3.693 7.241-7.814a.605.605 0 00-.603-.604c-.387 0-.767.036-1.14.09a7.817 7.817 0 001.743-4.918.605.605 0 00-.603-.603 7.9 7.9 0 00-1.14.09 7.816 7.816 0 001.743-4.918.605.605 0 00-.603-.603c-.386 0-.767.036-1.14.09a7.817 7.817 0 001.743-4.917.605.605 0 00-.603-.604 7.9 7.9 0 00-1.14.09 7.817 7.817 0 001.743-4.917.605.605 0 00-.603-.604zM7.845 30.169c.386 0 .766-.036 1.14-.09a7.92 7.92 0 00-1.14 1.907 7.809 7.809 0 00-1.14-1.907c.373.054.754.09 1.14.09zm0-3.614a7.807 7.807 0 00-1.14-1.907c.374.054.754.09 1.14.09a7.9 7.9 0 001.14-.09 7.924 7.924 0 00-1.14 1.907zm0-5.431a7.807 7.807 0 00-1.14-1.907c.374.054.754.09 1.14.09a7.9 7.9 0 001.14-.09 7.924 7.924 0 00-1.14 1.907zm0-5.431a7.807 7.807 0 00-1.14-1.907c.374.054.754.09 1.14.09a7.9 7.9 0 001.14-.09 7.924 7.924 0 00-1.14 1.907zm0-14.193a6.642 6.642 0 010 8.448 6.642 6.642 0 010-8.448zM5.298 8.584a6.592 6.592 0 011.913 4.062A6.651 6.651 0 011.237 6.67a6.56 6.56 0 014.061 1.913zm0 5.431a6.592 6.592 0 011.913 4.061 6.651 6.651 0 01-5.974-5.974 6.56 6.56 0 014.061 1.913zm0 5.431a6.592 6.592 0 011.913 4.061 6.651 6.651 0 01-5.974-5.974 6.56 6.56 0 014.061 1.913zm0 5.431a6.592 6.592 0 011.913 4.062 6.651 6.651 0 01-5.974-5.975 6.56 6.56 0 014.061 1.913zM1.237 28.39a6.591 6.591 0 014.061 1.912 6.592 6.592 0 011.913 4.062c-3.156-.296-5.672-2.818-5.974-5.974zm7.241 5.974a6.651 6.651 0 015.975-5.974c-.302 3.155-2.819 5.678-5.975 5.974zm0-5.431a6.651 6.651 0 015.975-5.974c-.302 3.155-2.819 5.678-5.975 5.974zm0-5.431a6.651 6.651 0 015.975-5.974c-.302 3.155-2.819 5.678-5.975 5.974zm0-5.432a6.651 6.651 0 015.975-5.974c-.302 3.156-2.819 5.679-5.975 5.974zm0-5.43a6.651 6.651 0 015.975-5.975c-.302 3.157-2.819 5.679-5.975 5.974zm26.298 6.667c-.386 0-.766.036-1.14.09a7.816 7.816 0 001.744-4.918.605.605 0 00-.604-.603 7.804 7.804 0 00-4.628 1.52c.38-2.395-.344-4.936-2.19-6.776a.612.612 0 00-.851 0c-1.841 1.84-2.565 4.381-2.191 6.777a7.786 7.786 0 00-4.622-1.521.605.605 0 00-.604.603c0 1.865.658 3.573 1.744 4.918a7.946 7.946 0 00-1.14-.09.605.605 0 00-.604.603c0 1.865.658 3.573 1.744 4.918a7.945 7.945 0 00-1.14-.09.605.605 0 00-.604.603c0 4.122 3.198 7.507 7.242 7.815v4.858c0 .332.271.603.603.603a.605.605 0 00.604-.603v-4.858c4.043-.308 7.241-3.693 7.241-7.815a.605.605 0 00-.603-.603c-.386 0-.767.036-1.14.09a7.816 7.816 0 001.743-4.918.605.605 0 00-.603-.603zm-7.241 8.448a7.9 7.9 0 001.14-.09 7.923 7.923 0 00-1.14 1.907 7.808 7.808 0 00-1.14-1.907 7.9 7.9 0 001.14.09zm0-3.614a7.808 7.808 0 00-1.14-1.907c.374.054.754.09 1.14.09.386 0 .766-.036 1.14-.09a7.922 7.922 0 00-1.14 1.907zm.634-3.054a6.651 6.651 0 015.974-5.974c-.302 3.156-2.819 5.679-5.974 5.974zm-.634-11.14a6.642 6.642 0 010 8.449 6.642 6.642 0 010-8.448zm-2.547 7.085a6.592 6.592 0 011.913 4.06 6.651 6.651 0 01-5.974-5.973 6.56 6.56 0 014.061 1.913zm0 5.43a6.592 6.592 0 011.913 4.062 6.651 6.651 0 01-5.974-5.974 6.56 6.56 0 014.061 1.913zm-4.061 3.513a6.591 6.591 0 014.061 1.913 6.592 6.592 0 011.913 4.061c-3.156-.296-5.672-2.818-5.974-5.974zm7.242 5.974a6.651 6.651 0 015.974-5.974c-.302 3.156-2.819 5.678-5.974 5.974zm0-5.43a6.651 6.651 0 015.974-5.975c-.302 3.156-2.819 5.678-5.974 5.974z" fill="#2F80ED"/></svg>