<svg width="601" height="845" fill="none" xmlns="http://www.w3.org/2000/svg"><path d="M423.072 844.154c27.728.854 53.715-7.293 75.129-21.835 32.227-21.884 54.031-58.21 55.705-99.788.018-.099.032-.198.041-.298.005-.099.011-.197.013-.293l.002-.15.006-.297 4.909-148.619 139.953 50.249c.144.06.275.093.409.137.063.02.123.042.191.068 65.619 23.224 138.114-11.071 161.779-76.619 23.72-65.58-10.294-138.142-75.74-162.014l-.154-.067a1.555 1.555 0 00-.357-.122l-139.834-50.411 91.257-117.569c42.868-55.226 32.843-135.038-22.359-177.819-55.197-42.78-135.01-32.696-177.966 22.513l-91.359 117.412-83.593-122.987C321.824-2.08 242.816-17.128 184.978 22.148c-57.839 39.276-72.991 118.263-33.783 176.115l83.364 122.989-142.832 41.617a.704.704 0 01-.177.082 1.31 1.31 0 01-.262.063C24.376 382.719-14.222 453.042 5.167 519.99c19.385 66.946 89.522 105.632 156.509 86.49.061-.019.119-.032.175-.043l.243-.057.109-.029 142.883-41.426-4.714 148.568c.009.07.006.148.002.227-.004.08-.007.159.002.229-2 69.672 52.991 128.066 122.696 130.205z" fill="#00AC4B"/></svg>